<svg width="438" height="182" viewBox="0 0 438 182" xmlns="http://www.w3.org/2000/svg">
  <circle cx="16.0" cy="58.8" r="9" fill="#3FC7BA"/>
  <path d="M110.95400000000001 76.124H63.74Q64.22800000000001 82.46799999999999 67.827 85.823Q71.426 89.178 76.672 89.178Q84.48 89.178 87.53 82.59H109.734Q108.026 89.3 103.57300000000001 94.668Q99.12 100.036 92.41 103.086Q85.7 106.136 77.404 106.136Q67.4 106.136 59.592000000000006 101.866Q51.784000000000006 97.596 47.392 89.666Q43.0 81.73599999999999 43.0 71.122Q43.0 60.507999999999996 47.331 52.577999999999996Q51.662000000000006 44.647999999999996 59.470000000000006 40.378Q67.278 36.108000000000004 77.404 36.108000000000004Q87.286 36.108000000000004 94.97200000000001 40.256Q102.658 44.403999999999996 106.989 52.089999999999996Q111.32000000000001 59.775999999999996 111.32000000000001 70.024Q111.32000000000001 72.952 110.95400000000001 76.124ZM89.97 64.53399999999999Q89.97 59.166 86.31 55.994Q82.65 52.821999999999996 77.16 52.821999999999996Q71.914 52.821999999999996 68.315 55.872Q64.71600000000001 58.922 63.862 64.53399999999999Z" fill="#0B1F1B"/>
  <path d="M146.822 36.352000000000004Q153.288 36.352000000000004 158.412 38.609Q163.536 40.866 166.708 44.891999999999996V37.084H187.57V137.612H166.708V96.62Q163.17000000000002 100.89 158.10700000000003 103.452Q153.044 106.014 146.578 106.014Q138.282 106.014 131.20600000000002 101.62199999999999Q124.13000000000001 97.22999999999999 119.921 89.3Q115.712 81.37 115.712 71.244Q115.712 61.117999999999995 119.921 53.187999999999995Q124.13000000000001 45.257999999999996 131.267 40.805Q138.404 36.352000000000004 146.822 36.352000000000004ZM151.824 54.408Q148.16400000000002 54.408 144.748 56.299Q141.332 58.19 139.136 61.971999999999994Q136.94 65.75399999999999 136.94 71.244Q136.94 76.734 139.136 80.455Q141.332 84.176 144.748 86.06700000000001Q148.16400000000002 87.958 151.824 87.958Q155.484 87.958 158.961 86.06700000000001Q162.438 84.176 164.57299999999998 80.394Q166.708 76.612 166.708 71.122Q166.708 65.632 164.57299999999998 61.911Q162.438 58.19 159.022 56.299Q155.606 54.408 151.824 54.408Z" fill="#0B1F1B"/>
  <path d="M267.48 37.084V105.16H246.61800000000002V95.88799999999999Q243.44600000000003 100.402 238.01700000000002 103.14699999999999Q232.58800000000002 105.892 226.0 105.892Q218.192 105.892 212.214 102.41499999999999Q206.23600000000002 98.938 202.942 92.35Q199.64800000000002 85.762 199.64800000000002 76.856V37.084H220.388V74.05Q220.388 80.882 223.926 84.664Q227.464 88.446 233.442 88.446Q239.54200000000003 88.446 243.08000000000004 84.664Q246.61800000000002 80.882 246.61800000000002 74.05V37.084Z" fill="#0B1F1B"/>
  <path d="M278.09400000000005 18.783999999999992Q278.09400000000005 13.903999999999996 281.571 10.671Q285.048 7.438000000000002 290.538 7.438000000000002Q295.906 7.438000000000002 299.38300000000004 10.671Q302.86 13.903999999999996 302.86 18.783999999999992Q302.86 23.542 299.38300000000004 26.775Q295.906 30.007999999999996 290.538 30.007999999999996Q285.048 30.007999999999996 281.571 26.775Q278.09400000000005 23.542 278.09400000000005 18.783999999999992ZM300.908 37.084V105.16H280.04600000000005V37.084Z" fill="#0B1F1B"/>
  <path d="M347.75600000000003 54.408H336.53200000000004V105.16H315.67V54.408H308.10600000000005V37.084H315.67V35.132000000000005Q315.67 22.566000000000003 322.86800000000005 16.039Q330.06600000000003 9.512 343.97400000000005 9.512Q346.29200000000003 9.512 347.39000000000004 9.634V27.323999999999998Q341.41200000000003 26.958 338.97200000000004 29.031999999999996Q336.53200000000004 31.105999999999995 336.53200000000004 36.474000000000004V37.084H347.75600000000003Z" fill="#0B1F1B"/>
  <path d="M424.61600000000004 37.084 381.91600000000005 137.49H359.4680000000001L375.08400000000006 102.842L347.39000000000004 37.084H370.69200000000006L386.43000000000006 79.66199999999999L402.04600000000005 37.084Z" fill="#0B1F1B"/>
  <path d="M192.48100000000002 165.998Q192.48100000000002 167.164 191.87600000000003 168.099Q191.27100000000002 169.034 190.127 169.57299999999998Q188.983 170.112 187.465 170.112H181.34900000000002V154.822H187.179Q188.741 154.822 189.863 155.35Q190.985 155.878 191.55700000000002 156.769Q192.12900000000002 157.66 192.12900000000002 158.76Q192.12900000000002 160.07999999999998 191.425 160.95999999999998Q190.721 161.84 189.53300000000002 162.25799999999998Q190.76500000000001 162.478 191.62300000000002 163.55599999999998Q192.48100000000002 164.634 192.48100000000002 165.998ZM183.857 161.24599999999998H186.959Q188.191 161.24599999999998 188.88400000000001 160.685Q189.577 160.124 189.577 159.06799999999998Q189.577 158.034 188.88400000000001 157.451Q188.191 156.868 186.959 156.868H183.857ZM189.973 165.73399999999998Q189.973 164.612 189.20300000000003 163.952Q188.43300000000002 163.292 187.157 163.292H183.857V168.066H187.245Q188.52100000000002 168.066 189.247 167.45Q189.973 166.834 189.973 165.73399999999998Z" fill="#C19D53"/>
  <path d="M212.699 154.822 207.639 164.56799999999998V170.112H205.13100000000003V164.56799999999998L200.04900000000004 154.822H202.84300000000002L206.38500000000002 162.32399999999998L209.92700000000002 154.822Z" fill="#C19D53"/>
  <path d="M232.34500000000003 165.888H235.02900000000002Q235.11700000000002 166.878 235.81 167.516Q236.50300000000001 168.154 237.757 168.154Q239.055 168.154 239.781 167.527Q240.507 166.9 240.507 165.91Q240.507 165.14 240.056 164.656Q239.60500000000002 164.172 238.93400000000003 163.90800000000002Q238.263 163.644 237.07500000000002 163.33599999999998Q235.579 162.94 234.644 162.53300000000002Q233.709 162.126 233.049 161.268Q232.389 160.41 232.389 158.98Q232.389 157.66 233.049 156.67000000000002Q233.709 155.68 234.897 155.152Q236.085 154.624 237.64700000000002 154.624Q239.86900000000003 154.624 241.288 155.735Q242.70700000000002 156.846 242.86100000000002 158.78199999999998H240.08900000000003Q240.02300000000002 157.946 239.29700000000003 157.35199999999998Q238.57100000000003 156.75799999999998 237.383 156.75799999999998Q236.305 156.75799999999998 235.62300000000002 157.308Q234.94100000000003 157.858 234.94100000000003 158.892Q234.94100000000003 159.596 235.37 160.047Q235.799 160.498 236.459 160.762Q237.11900000000003 161.02599999999998 238.263 161.334Q239.781 161.752 240.738 162.17000000000002Q241.69500000000002 162.588 242.366 163.457Q243.037 164.326 243.037 165.778Q243.037 166.944 242.41000000000003 167.978Q241.78300000000002 169.012 240.584 169.639Q239.38500000000002 170.266 237.757 170.266Q236.217 170.266 234.985 169.72699999999998Q233.75300000000001 169.188 233.04900000000004 168.19799999999998Q232.34500000000003 167.208 232.34500000000003 165.888Z" fill="#C19D53"/>
  <path d="M263.29900000000004 165.998Q263.29900000000004 167.164 262.694 168.099Q262.089 169.034 260.94500000000005 169.57299999999998Q259.80100000000004 170.112 258.283 170.112H252.16700000000003V154.822H257.997Q259.559 154.822 260.68100000000004 155.35Q261.803 155.878 262.375 156.769Q262.947 157.66 262.947 158.76Q262.947 160.07999999999998 262.24300000000005 160.95999999999998Q261.53900000000004 161.84 260.351 162.25799999999998Q261.583 162.478 262.44100000000003 163.55599999999998Q263.29900000000004 164.634 263.29900000000004 165.998ZM254.675 161.24599999999998H257.77700000000004Q259.009 161.24599999999998 259.702 160.685Q260.39500000000004 160.124 260.39500000000004 159.06799999999998Q260.39500000000004 158.034 259.702 157.451Q259.009 156.868 257.77700000000004 156.868H254.675ZM260.791 165.73399999999998Q260.791 164.612 260.021 163.952Q259.25100000000003 163.292 257.975 163.292H254.675V168.066H258.06300000000005Q259.339 168.066 260.065 167.45Q260.791 166.834 260.791 165.73399999999998Z" fill="#C19D53"/>
  <path d="M279.16100000000006 154.624Q281.603 154.624 283.50600000000003 155.82299999999998Q285.40900000000005 157.022 286.26700000000005 159.222H283.25300000000004Q282.65900000000005 158.012 281.60300000000007 157.418Q280.547 156.82399999999998 279.16100000000006 156.82399999999998Q277.64300000000003 156.82399999999998 276.45500000000004 157.50599999999997Q275.26700000000005 158.188 274.596 159.464Q273.925 160.74 273.925 162.434Q273.925 164.128 274.596 165.404Q275.26700000000005 166.68 276.45500000000004 167.373Q277.64300000000003 168.066 279.16100000000006 168.066Q280.547 168.066 281.60300000000007 167.47199999999998Q282.65900000000005 166.878 283.25300000000004 165.668H286.26700000000005Q285.40900000000005 167.868 283.50600000000003 169.05599999999998Q281.603 170.244 279.16100000000006 170.244Q277.00500000000005 170.244 275.22300000000007 169.243Q273.44100000000003 168.242 272.3960000000001 166.45999999999998Q271.35100000000006 164.678 271.35100000000006 162.434Q271.35100000000006 160.19 272.3960000000001 158.40800000000002Q273.44100000000003 156.626 275.23400000000004 155.625Q277.02700000000004 154.624 279.16100000000006 154.624Z" fill="#C19D53"/>
</svg>
